M48
INCH,TZ
VER,1
FMAT,2
DETECT,ON
ATC,ON
T1C0.02362
T2C0.03500
T3C0.03917
T4C0.14000
T5C0.12000
T6C0.03937
T7C0.09055
T8C0.03543
T9C0.05900
T10C0.03200
%
T1
X0.89500Y-0.05500
X1.52500Y-0.12500
X0.15500Y0.45000
X0.42000Y0.28500
X0.35500Y0.45000
X0.45500Y0.72000
X0.49000Y0.75500
X0.42000Y0.68500
X1.21500Y0.40000
Y0.50500
X1.21000Y0.60000
X0.96000Y1.20000
X0.93500Y1.10000
X0.91000Y1.00000
X1.21000Y0.80000
Y0.70000
X0.64000Y1.30000
Y1.35000
Y1.46500
Y1.41500
X0.40500Y1.68500
Y1.63500
X0.43500Y1.82500
X0.19500Y2.13500
X0.05500Y2.29500
X0.10500
X0.92000Y1.30500
X0.97000
X0.71500Y1.56000
X0.80000
X0.70500Y2.33500
T2
X0.07500Y1.30000
Y0.60000
Y0.30000
Y0.10000
Y0.20000
Y0.50000
Y0.40000
Y0.80000
Y0.70000
Y0.90000
Y1.10000
Y1.00000
Y1.20000
Y1.90000
Y1.60000
Y1.40000
Y1.50000
Y1.70000
Y1.80000
X1.52500Y1.30000
Y0.60000
Y0.30000
Y0.20000
Y0.50000
Y0.40000
Y0.80000
Y0.70000
Y0.90000
Y1.10000
Y1.00000
Y1.20000
Y1.90000
Y1.60000
Y1.40000
Y1.50000
Y1.70000
Y1.80000
Y2.00000
X0.83500Y0.78833
Y0.98000
X0.67500Y1.90000
X1.02500
T3
X0.07500Y2.00000
X1.52500Y0.10000
X0.57500Y1.90000
X0.92500
T4
X0.54100Y2.30000
T5
X0.29500Y2.30000
X0.42300Y2.11100
T6
X0.64280Y-0.08000
X0.46563
X0.36720
X0.54437
X1.05000Y0.60000
Y0.50000
Y0.40000
Y0.80000
Y0.70000
Y0.90000
Y1.10000
Y1.00000
Y1.20000
Y1.60000
Y1.40000
Y1.30000
Y1.50000
Y1.70000
X1.35000Y0.60000
Y0.50000
Y0.40000
Y0.80000
Y0.70000
Y0.90000
Y1.10000
Y1.00000
Y1.20000
Y1.60000
Y1.40000
Y1.30000
Y1.50000
Y1.70000
X0.25000Y0.60000
X0.55000
X0.25000Y0.50000
Y0.40000
X0.55000Y0.50000
Y0.40000
X0.25000Y0.80000
Y0.70000
Y0.90000
Y1.10000
Y1.00000
Y1.20000
X0.55000Y0.80000
Y0.70000
Y0.90000
Y1.10000
Y1.00000
Y1.20000
X0.25000Y1.60000
Y1.40000
Y1.30000
Y1.50000
Y1.70000
X0.55000Y1.60000
Y1.40000
Y1.30000
Y1.50000
Y1.70000
T7
X0.24634Y-0.18669
X0.76366
T8
X1.10000Y2.34000
X1.00000
X1.20000
X1.40000
X1.30000
X1.50000
T9
X1.22516Y0.14000
X0.74484
X0.80500Y1.19984
Y1.68016
T10
X0.82752Y0.14000
X0.90626
X0.98500
X1.14248
X0.75579Y1.28252
X0.85421
X0.75579Y1.59748
X0.85421
X0.75579Y1.36126
Y1.44000
X0.85421
Y1.36126
M30
