M48
INCH,TZ
VER,1
FMAT,2
DETECT,ON
ATC,ON
T1C0.02362
T2C0.03937
T3C0.12598
T4C0.06299
T5C0.03500
T6C0.03917
%
T1
X0.33000Y0.20500
X0.38000Y0.16500
X2.48500Y0.08500
T2
X0.59507Y0.30115
Y0.20115
Y0.40115
Y0.50115
X0.08523Y0.63717
Y0.11513
Y0.21513
Y0.53717
X0.49507Y0.35115
Y0.25115
Y0.55115
Y0.45115
X1.22385Y0.22615
Y0.52615
X0.92385Y0.22615
Y0.52615
X0.82385Y0.22615
Y0.52615
X1.12385Y0.22615
X1.02385
X1.12385Y0.52615
X1.02385
X1.92385Y0.22615
Y0.52615
X1.42385Y0.22615
X1.32385
X1.52385
X1.42385Y0.52615
X1.32385
X1.52385
X1.72385Y0.22615
X1.62385
X1.82385
X1.72385Y0.52615
X1.62385
X1.82385
X2.02385Y0.22615
X2.12385
X2.02385Y0.52615
X2.12385
T3
X0.24507Y0.60115
Y0.15115
T4
X0.36515Y0.68127
Y0.07103
T5
X1.22385Y0.07603
X1.42385
X1.32385
X1.52385
X1.72385
X1.62385
X1.82385
X1.22385Y0.67615
X1.42385
X1.32385
X1.52385
X1.72385
X1.62385
X1.82385
X2.35885Y0.27615
Y0.46782
T6
X1.92385Y0.07603
Y0.67615
M30
