M48
INCH,TZ
VER,1
FMAT,2
DETECT,ON
ATC,ON
T1C0.02362
T2C0.03937
T3C0.06299
T4C0.03543
T5C0.03500
T6C0.03917
%
T1
X1.26500Y1.80500
X0.35500Y0.31500
X0.55500
X0.95500
X0.75500
X1.15500
X0.12500Y1.79500
X1.01500Y1.89000
X0.96500Y2.25000
X1.88000Y0.46000
X1.55500Y0.31500
X1.35500
X2.42500Y1.22500
X1.87500Y1.62000
X1.36500Y1.91500
X1.31000Y1.89000
X1.46000Y1.73500
X1.52500Y1.66000
X1.50000Y1.77000
X1.62000Y1.40000
X1.62500Y1.71000
X1.41000Y1.95000
X1.46000Y1.98500
X2.33000Y1.90500
X2.22000Y1.57000
X1.97000Y1.75000
X1.96500Y1.65500
X1.97000Y1.80000
X2.13500Y1.65500
X2.42500Y1.58000
X2.33000Y1.75000
Y1.80000
Y1.85500
X1.97000Y2.20500
X2.33500
X2.33000Y2.05500
Y2.00500
Y1.95500
Y2.15500
Y2.10500
T2
X1.26500Y1.14000
Y1.53370
X0.66500Y1.14000
X0.96500
X0.76500
X0.86500
X1.06500
X1.16500
X0.66500Y1.53370
X0.96500
X0.76500
X0.86500
X1.06500
X1.16500
X1.36500Y1.14000
Y1.53370
X1.26500Y1.73500
Y2.12870
X0.66500Y1.73500
Y2.12870
X0.96500Y1.73500
X0.76500
X0.86500
X1.06500
X1.16500
X0.96500Y2.12870
X0.76500
X0.86500
X1.06500
X1.16500
X1.36500Y1.73500
Y2.12870
X1.96000Y0.62500
X2.26000
X1.96000Y0.32500
Y0.12500
Y0.22500
Y0.42500
Y0.52500
X2.26000Y0.32500
Y0.12500
Y0.22500
Y0.42500
Y0.52500
X1.96000Y0.92500
Y0.72500
Y0.82500
Y1.12500
Y1.02500
Y1.22500
X2.26000Y0.92500
Y0.72500
Y0.82500
Y1.12500
Y1.02500
Y1.22500
X1.96000Y1.42500
Y1.32500
X2.26000Y1.42500
Y1.32500
T3
X1.20000Y0.63858
Y0.96142
X0.40000Y0.63858
Y0.96142
X0.80000Y0.63858
Y0.96142
X1.60000Y0.63858
Y0.96142
T4
X1.20000Y0.80000
Y0.72126
Y0.87874
X0.40000Y0.80000
Y0.72126
Y0.87874
X0.80000
Y0.72126
Y0.80000
X1.60000Y0.87874
Y0.72126
Y0.80000
T5
X0.12500Y0.61500
Y0.51500
Y0.91500
Y0.71500
Y0.81500
Y1.11500
Y1.01500
X2.42500Y0.61500
Y0.51500
Y0.91500
Y0.81500
Y0.71500
Y1.11500
Y1.01500
T6
X0.12500Y0.41500
X2.42500
M30
